<svg width="23" height="22" viewBox="0 0 23 22" fill="none" xmlns="http://www.w3.org/2000/svg">
<path fill-rule="evenodd" clip-rule="evenodd" d="M17.9999 13.75C17.2384 13.75 16.5315 14.0169 15.9674 14.4665L15.9661 14.4675C15.2209 15.0588 14.7499 15.9745 14.7499 17C14.7499 17.6094 14.9204 18.1833 15.2183 18.6663C15.2235 18.6749 15.2287 18.6835 15.2336 18.6923C15.2943 18.8002 15.3735 18.9101 15.4693 19.0219C15.4729 19.026 15.4763 19.0302 15.4798 19.0344C15.488 19.0427 15.4986 19.0539 15.5095 19.0659C15.5233 19.0812 15.5405 19.1011 15.559 19.1253C16.1417 19.8116 17.0176 20.25 17.9999 20.25C18.8226 20.25 19.5644 19.9499 20.1282 19.4425C20.1347 19.4367 20.1413 19.431 20.1479 19.4254C20.3909 19.2216 20.605 18.9684 20.7721 18.6821L20.7815 18.6663C21.0794 18.1833 21.2499 17.6094 21.2499 17C21.2499 16.1507 20.9193 15.3784 20.377 14.7868L20.3749 14.7845C20.2885 14.6895 20.2151 14.6189 20.1499 14.57C20.1352 14.559 20.121 14.5474 20.1072 14.5354C19.5399 14.0411 18.8137 13.75 17.9999 13.75ZM15.0331 13.293C15.8489 12.6429 16.8817 12.25 17.9999 12.25C19.1768 12.25 20.2431 12.6722 21.073 13.3876C21.2372 13.5139 21.3754 13.6553 21.4838 13.7744C22.2609 14.6227 22.7499 15.7499 22.7499 17C22.7499 17.8874 22.5022 18.7306 22.0631 19.4459C21.813 19.8725 21.4924 20.2534 21.1219 20.5662C20.2869 21.3134 19.1926 21.75 17.9999 21.75C16.5501 21.75 15.2522 21.0956 14.3948 20.0715C14.3932 20.0696 14.3916 20.0676 14.39 20.0657C14.3818 20.0573 14.3712 20.0462 14.3603 20.0341C14.3468 20.0193 14.3303 20.0001 14.3123 19.9768C14.1776 19.8176 14.0465 19.639 13.9338 19.4412C13.4965 18.7269 13.2499 17.8855 13.2499 17C13.2499 15.5058 13.9386 14.1617 15.0331 13.293Z" fill="#292D32"/>
<path fill-rule="evenodd" clip-rule="evenodd" d="M15.7599 16.98C15.7599 16.5658 16.0957 16.23 16.5099 16.23H19.4899C19.9041 16.23 20.2399 16.5658 20.2399 16.98C20.2399 17.3942 19.9041 17.73 19.4899 17.73H16.5099C16.0957 17.73 15.7599 17.3942 15.7599 16.98Z" fill="#292D32"/>
<path fill-rule="evenodd" clip-rule="evenodd" d="M17.9999 14.77C18.4141 14.77 18.7499 15.1058 18.7499 15.52V18.51C18.7499 18.9242 18.4141 19.26 17.9999 19.26C17.5857 19.26 17.2499 18.9242 17.2499 18.51V15.52C17.2499 15.1058 17.5857 14.77 17.9999 14.77Z" fill="#292D32"/>
<path fill-rule="evenodd" clip-rule="evenodd" d="M1.52075 6.06434C1.72823 5.70583 2.18704 5.58339 2.54555 5.79086L10.9997 10.6834L19.394 5.82099C19.7524 5.61337 20.2113 5.73562 20.4189 6.09405C20.6265 6.45247 20.5042 6.91134 20.1458 7.11896L11.3758 12.199C11.1434 12.3336 10.8567 12.3337 10.6242 12.1991L1.79423 7.08914C1.43572 6.88167 1.31328 6.42285 1.52075 6.06434Z" fill="#292D32"/>
<path fill-rule="evenodd" clip-rule="evenodd" d="M10.9999 10.79C11.4141 10.79 11.7499 11.1258 11.7499 11.54V20.61C11.7499 21.0242 11.4141 21.36 10.9999 21.36C10.5857 21.36 10.2499 21.0242 10.2499 20.61V11.54C10.2499 11.1258 10.5857 10.79 10.9999 10.79Z" fill="#292D32"/>
<path fill-rule="evenodd" clip-rule="evenodd" d="M10.9999 1.75C10.3427 1.75 9.72736 1.89241 9.29704 2.13399L9.2935 2.13597L3.9535 5.09599C3.49354 5.35068 3.03123 5.82777 2.68219 6.41971C2.33312 7.01171 2.13989 7.64606 2.13989 8.17V13.83C2.13989 14.354 2.33312 14.9883 2.68219 15.5803C3.03123 16.1723 3.49324 16.6492 3.9532 16.9039L9.29704 19.866C9.72736 20.1076 10.3427 20.25 10.9999 20.25C11.6571 20.25 12.2724 20.1076 12.7027 19.8661L12.7075 19.8634L13.8221 19.2483C13.4547 18.5773 13.2499 17.8069 13.2499 17C13.2499 15.5058 13.9386 14.1617 15.0331 13.293C15.8489 12.6429 16.8817 12.25 17.9999 12.25C18.6624 12.25 19.2899 12.3838 19.8599 12.6284V8.17C19.8599 7.64606 19.6667 7.01171 19.3176 6.41971C18.9686 5.82777 18.5065 5.35084 18.0466 5.09615L12.7027 2.134C12.2724 1.89242 11.6571 1.75 10.9999 1.75ZM13.4352 0.824978C12.7258 0.427287 11.842 0.25 10.9999 0.25C10.1578 0.25 9.27395 0.427287 8.56458 0.824978L3.22658 3.78389C2.47667 4.19922 1.83849 4.89736 1.39009 5.65782C0.941666 6.41831 0.639893 7.31395 0.639893 8.17V13.83C0.639893 14.6861 0.941666 15.5817 1.39009 16.3422C1.83849 17.1027 2.47637 17.8007 3.22628 18.216C3.22618 18.2159 3.22638 18.216 3.22628 18.216L8.56273 21.174C8.56334 21.1744 8.56394 21.1747 8.56454 21.175C9.27392 21.5727 10.1578 21.75 10.9999 21.75C11.8417 21.75 12.7254 21.5728 13.4346 21.1754C13.4354 21.1749 13.4362 21.1745 13.4371 21.174L15.2623 20.1667C15.4598 20.0576 15.5978 19.8655 15.6379 19.6435C15.6781 19.4215 15.6161 19.1932 15.4693 19.0219C15.3735 18.9101 15.2943 18.8002 15.2336 18.6923C15.2287 18.6835 15.2235 18.6749 15.2183 18.6663C14.9204 18.1833 14.7499 17.6094 14.7499 17C14.7499 15.9745 15.2209 15.0588 15.9661 14.4675L15.9674 14.4665C16.5315 14.0169 17.2384 13.75 17.9999 13.75C18.8137 13.75 19.5399 14.0411 20.1072 14.5354C20.3088 14.7111 20.5886 14.7661 20.8417 14.6799C21.0948 14.5937 21.2829 14.3793 21.3353 14.1171C21.3602 13.9927 21.36 13.8887 21.3599 13.8384C21.3599 13.8354 21.3599 13.8326 21.3599 13.83V8.17C21.3599 7.31395 21.0581 6.41831 20.6097 5.65782C20.1613 4.89736 19.5234 4.19939 18.7735 3.78406C18.7736 3.78411 18.7734 3.784 18.7735 3.78406L13.4371 0.826012C13.4364 0.825667 13.4358 0.825323 13.4352 0.824978Z" fill="#292D32"/>
</svg>
