<svg width="16" height="16" viewBox="0 0 16 16" fill="none" xmlns="http://www.w3.org/2000/svg">
<path fill-rule="evenodd" clip-rule="evenodd" d="M7.7764 0.0527864C7.91716 -0.0175955 8.08285 -0.0175955 8.22361 0.0527864L9.88861 0.885287C10.096 0.988991 10.2049 1.22169 10.1516 1.44738C10.0984 1.67306 9.8969 1.8325 9.66501 1.8325H6.33501C6.10312 1.8325 5.90166 1.67306 5.84838 1.44738C5.7951 1.22169 5.90399 0.988991 6.1114 0.885287L7.7764 0.0527864ZM3.44472 2.77389C3.56822 3.02088 3.4681 3.32122 3.22111 3.44472L2.45054 3.83L3.22111 4.21529C3.4681 4.33878 3.56822 4.63912 3.44472 4.88611C3.32123 5.1331 3.02089 5.23321 2.7739 5.10972L1.83251 4.63902V5.915C1.83251 6.19114 1.60865 6.415 1.33251 6.415C1.05636 6.415 0.832507 6.19114 0.832507 5.915V3.84083C0.832431 3.83722 0.832395 3.83361 0.832398 3.83C0.832368 3.79175 0.836743 3.7532 0.845773 3.7151C0.859644 3.65611 0.88396 3.60116 0.916662 3.55229C0.935106 3.52459 0.955983 3.49923 0.978857 3.47635C1.00174 3.45348 1.0271 3.4326 1.05479 3.41416C1.07506 3.4006 1.09637 3.38848 1.11859 3.37794L2.7739 2.55029C3.02089 2.42679 3.32123 2.52691 3.44472 2.77389ZM1.11342 3.38053C1.06408 3.40454 1.01847 3.43673 0.978857 3.47635C0.933862 3.52134 0.89845 3.57404 0.873726 3.63117C0.877337 3.62286 0.881192 3.6146 0.885293 3.6064M12.5553 2.77389C12.6788 2.52691 12.9791 2.42679 13.2261 2.55029L14.8814 3.37795C14.8983 3.38594 14.9146 3.39485 14.9304 3.40462C14.9631 3.42475 14.9936 3.44875 15.0212 3.47635C15.0488 3.50395 15.0728 3.53445 15.0929 3.5671C15.1208 3.61217 15.1418 3.662 15.1542 3.7151C15.1633 3.7532 15.1676 3.79175 15.1676 3.83C15.1676 3.83361 15.1676 3.83722 15.1675 3.84083V5.915C15.1675 6.19114 14.9436 6.415 14.6675 6.415C14.3914 6.415 14.1675 6.19114 14.1675 5.915V4.63902L13.2261 5.10972C12.9791 5.23321 12.6788 5.1331 12.5553 4.88611C12.4318 4.63912 12.5319 4.33878 12.7789 4.21529L13.5495 3.83L12.7789 3.44472C12.5319 3.32122 12.4318 3.02088 12.5553 2.77389ZM5.88779 6.11139C6.01129 5.8644 6.31162 5.76429 6.55861 5.88779L8.00001 6.60848L9.4414 5.88779C9.68839 5.76429 9.98873 5.8644 10.1122 6.11139C10.2357 6.35838 10.1356 6.65872 9.88861 6.78221L8.50001 7.47652V9.2525C8.50001 9.52864 8.27615 9.7525 8.00001 9.7525C7.72386 9.7525 7.50001 9.52864 7.50001 9.2525V7.47652L6.1114 6.78221C5.86441 6.65872 5.7643 6.35838 5.88779 6.11139ZM1.20431 9.60171C1.42349 9.54357 1.65437 9.64022 1.76677 9.83717L3.43177 12.7547C3.54095 12.946 3.51207 13.1862 3.36064 13.3462C3.20921 13.5062 2.97093 13.5482 2.7739 13.4497L1.1089 12.6172C0.939508 12.5325 0.832507 12.3594 0.832507 12.17V10.085C0.832507 9.85823 0.985119 9.65986 1.20431 9.60171ZM14.1675 10.085C14.1675 9.80886 14.3914 9.585 14.6675 9.585C14.9436 9.585 15.1675 9.80886 15.1675 10.085V12.17C15.1675 12.3594 15.0605 12.5325 14.8911 12.6172L13.2261 13.4497C12.9791 13.5732 12.6788 13.4731 12.5553 13.2261C12.4318 12.9791 12.5319 12.6788 12.7789 12.5553L14.1675 11.861V10.085ZM8.00001 12.915C8.27615 12.915 8.50001 13.1389 8.50001 13.415V14.691L9.4414 14.2203C9.68839 14.0968 9.98873 14.1969 10.1122 14.4439C10.2357 14.6909 10.1356 14.9912 9.88861 15.1147L8.23263 15.9427C8.22285 15.9477 8.20891 15.9544 8.19884 15.9588C8.17131 15.9707 8.14323 15.98 8.11491 15.9867C8.07681 15.9958 8.03826 16.0001 8.00001 16.0001C7.96176 16.0001 7.92321 15.9958 7.8851 15.9867C7.84363 15.977 7.80416 15.9621 7.76738 15.9427L6.1114 15.1147C5.86441 14.9912 5.7643 14.6909 5.88779 14.4439C6.01129 14.1969 6.31162 14.0968 6.55861 14.2203L7.50001 14.691V13.415C7.50001 13.1389 7.72386 12.915 8.00001 12.915ZM8.22361 15.9472L8.22887 15.9446Z" fill="#292D32"/>
</svg>
