<svg width="16" height="16" viewBox="0 0 16 16" fill="none" xmlns="http://www.w3.org/2000/svg">
<path fill-rule="evenodd" clip-rule="evenodd" d="M7.54569 1.13585L2.6649 3.76743C2.56659 3.82047 2.5 3.93101 2.5 4.07363C2.5 4.2162 2.56654 4.32672 2.66479 4.37978L7.54569 7.01142C7.83302 7.1647 8.16627 7.16508 8.45361 7.01179L13.3351 4.37983C13.4334 4.3268 13.5 4.21625 13.5 4.07363C13.5 3.93101 13.4334 3.82047 13.3351 3.76743L8.45431 1.13585C8.16699 0.982578 7.83301 0.982578 7.54569 1.13585ZM7.07431 0.253917C7.65658 -0.0572952 8.34342 -0.0572952 8.92569 0.253917L8.92729 0.254775L13.8098 2.88728C14.7299 3.38367 14.73 4.76354 13.8099 5.25993L8.92729 7.89249L8.92569 7.89335C8.34342 8.20456 7.65658 8.20456 7.07431 7.89335L7.07271 7.89249L2.19021 5.25999C1.27007 4.7636 1.26997 3.38372 2.1901 2.88733L7.07271 0.254778L7.07431 0.253917Z" fill="#292D32"/>
<path fill-rule="evenodd" clip-rule="evenodd" d="M1.48377 7.04454C1.25703 6.93127 1 7.09383 1 7.33988V11.6299C1 12.0682 1.25101 12.4745 1.6475 12.6759L1.64848 12.6764L6.18361 14.9477C6.41033 15.0609 6.6675 14.8984 6.6675 14.6524V10.3624C6.6675 9.9241 6.41647 9.51773 6.01998 9.31639L6.01902 9.3159L1.48377 7.04454ZM0 7.33988C0 6.34098 1.04788 5.70856 1.93111 6.15017L6.47098 8.42386C7.19893 8.79269 7.6675 9.54102 7.6675 10.3624V14.6524C7.6675 15.6513 6.61962 16.2837 5.73639 15.8421L1.1986 13.5694L1.19652 13.5684C0.46857 13.1996 0 12.4513 0 11.6299V7.33988Z" fill="#292D32"/>
<path fill-rule="evenodd" clip-rule="evenodd" d="M14.0689 6.15017C14.9521 5.70856 16 6.34098 16 7.33988V11.6299C16 12.4513 15.5314 13.1996 14.8035 13.5684L14.8014 13.5695L10.2639 15.842C9.38068 16.2836 8.3325 15.6513 8.3325 14.6524V10.3624C8.3325 9.54102 8.80107 8.79269 9.52902 8.42387L9.5311 8.42281L14.0689 6.15017ZM14.5161 7.0446L9.98098 9.3159L9.98003 9.31638C9.58353 9.51772 9.3325 9.9241 9.3325 10.3624V14.6524C9.3325 14.8984 9.58948 15.061 9.81621 14.9478L14.3515 12.6764L14.3525 12.6759C14.749 12.4745 15 12.0682 15 11.6299V7.33988C15 7.09385 14.7428 6.93137 14.5161 7.0446Z" fill="#292D32"/>
</svg>
