<svg width="20" height="22" viewBox="0 0 20 22" fill="none" xmlns="http://www.w3.org/2000/svg">
<path fill-rule="evenodd" clip-rule="evenodd" d="M7.4597 2.78456L7.29694 3.75376C7.85796 3.73791 8.419 3.72998 8.98005 3.72998C10.2228 3.72998 11.4668 3.75334 12.7106 3.79954L12.5399 2.79069C12.4562 2.27767 12.4033 2.09352 12.3062 1.98155C12.2524 1.9196 12.065 1.75 11.3101 1.75H8.69012C7.92402 1.75 7.74232 1.91488 7.69388 1.96981C7.60177 2.07427 7.54978 2.24976 7.4597 2.78456ZM5.98048 2.53579L5.76535 3.81674C4.83212 3.86712 3.89893 3.93943 2.96578 4.03367L0.926876 4.23356C0.514639 4.27397 0.213218 4.64092 0.253633 5.05316C0.294048 5.4654 0.660996 5.76682 1.07323 5.7264L3.11323 5.5264L3.11543 5.52618C5.07051 5.3287 7.02535 5.22998 8.98005 5.22998C12.2947 5.22998 15.62 5.39869 18.9261 5.72632C19.3383 5.76717 19.7055 5.46614 19.7464 5.05394C19.7872 4.64175 19.4862 4.27448 19.074 4.23364C17.4674 4.07442 15.856 3.95217 14.2432 3.868L14.2412 3.85492L14.2396 3.84486L14.02 2.54711L14.0106 2.48891C13.9448 2.08006 13.8463 1.46776 13.4391 0.998446C12.9678 0.455399 12.2453 0.25 11.3101 0.25H8.69012C7.76621 0.25 7.04291 0.440117 6.56885 0.977691C6.16216 1.43887 6.06114 2.04899 5.99228 2.46487L5.98048 2.53579ZM17.5984 8.18829C17.6251 7.77494 17.3116 7.41822 16.8982 7.39154C16.4849 7.36486 16.1282 7.67832 16.1015 8.09167L15.4518 18.1576L15.4516 18.1596C15.4234 18.5624 15.3995 18.8818 15.3434 19.1602C15.2888 19.4313 15.213 19.6094 15.1151 19.7369C14.9463 19.9567 14.5294 20.25 13.2099 20.25H6.78993C5.47049 20.25 5.05356 19.9567 4.88473 19.7369C4.78683 19.6094 4.71102 19.4313 4.65642 19.1602C4.60035 18.8818 4.57646 18.5624 4.54824 18.1596L4.5481 18.1576L3.89837 8.09167C3.87169 7.67832 3.51497 7.36486 3.10162 7.39154C2.68827 7.41822 2.37481 7.77494 2.40149 8.18829L3.05148 18.2583L3.05309 18.2814C3.07944 18.6576 3.10841 19.0714 3.18594 19.4563C3.26633 19.8555 3.40803 20.2768 3.69513 20.6506C4.2963 21.4333 5.31937 21.75 6.78993 21.75H13.2099C14.6805 21.75 15.7036 21.4333 16.3047 20.6506C16.5918 20.2768 16.7335 19.8555 16.8139 19.4563C16.8914 19.0714 16.9204 18.6577 16.9468 18.2814L16.9481 18.2624L17.5984 8.18829ZM7.58008 15.5C7.58008 15.0858 7.91586 14.75 8.33008 14.75H11.6601C12.0743 14.75 12.4101 15.0858 12.4101 15.5C12.4101 15.9142 12.0743 16.25 11.6601 16.25H8.33008C7.91586 16.25 7.58008 15.9142 7.58008 15.5ZM7.5 10.75C7.08579 10.75 6.75 11.0858 6.75 11.5C6.75 11.9142 7.08579 12.25 7.5 12.25H12.5C12.9142 12.25 13.25 11.9142 13.25 11.5C13.25 11.0858 12.9142 10.75 12.5 10.75H7.5Z" fill="#A862EA"/>
</svg>
