<svg width="22" height="22" viewBox="0 0 22 22" fill="none" xmlns="http://www.w3.org/2000/svg">
<path fill-rule="evenodd" clip-rule="evenodd" d="M17.1969 0.0135933C18.3103 -0.0956927 19.4141 0.393245 20.5105 1.48968C21.607 2.58611 22.0959 3.68992 21.9866 4.80327C21.8812 5.87728 21.2335 6.76741 20.5105 7.49034L12.6218 15.379C12.3966 15.597 12.1023 15.7874 11.8183 15.9301C11.5359 16.072 11.2033 16.1972 10.8863 16.2425L7.87244 16.673C7.13036 16.7751 6.42033 16.5725 5.92219 16.0764C5.42298 15.5792 5.21878 14.8689 5.32793 14.1226L5.32815 14.1211L5.75739 11.1164L5.75758 11.115C5.80262 10.7938 5.92714 10.4588 6.07008 10.1744C6.21332 9.88945 6.40618 9.59336 6.62986 9.36968L13.3636 2.63599C13.3743 2.62458 13.3854 2.61349 13.3968 2.60274L14.5099 1.48968C15.2328 0.766747 16.1229 0.119017 17.1969 0.0135933ZM13.612 4.50883L7.69053 10.4303C7.61421 10.5067 7.50707 10.6556 7.41031 10.8481C7.31345 11.0408 7.25812 11.2153 7.243 11.3237L7.24266 11.3261L6.81266 14.3361L6.81224 14.3389C6.76188 14.682 6.86275 14.8961 6.9807 15.0136C7.09985 15.1323 7.31928 15.2345 7.66616 15.1873L7.66795 15.187L10.6741 14.7575C10.7771 14.7428 10.9495 14.688 11.1446 14.5899C11.3354 14.494 11.4894 14.3862 11.575 14.3046L17.4929 8.38661C15.776 7.59777 14.3978 6.22138 13.612 4.50883ZM18.6427 7.23681C16.8275 6.58877 15.4031 5.16364 14.7624 3.35849L15.5705 2.55034C16.2076 1.91327 16.7875 1.56099 17.3435 1.50642C17.8601 1.4557 18.5463 1.64677 19.4499 2.55034C20.3534 3.4539 20.5445 4.14009 20.4938 4.65674C20.4392 5.21273 20.0869 5.79261 19.4499 6.42968L18.6427 7.23681ZM2.09467 2.09468C3.42914 0.760209 5.42603 0.250008 8 0.250008H10C10.4142 0.250008 10.75 0.585794 10.75 1.00001C10.75 1.41422 10.4142 1.75001 10 1.75001H8C5.57397 1.75001 4.07086 2.23981 3.15533 3.15534C2.2398 4.07087 1.75 5.57398 1.75 8.00001V14C1.75 16.426 2.2398 17.9291 3.15533 18.8447C4.07086 19.7602 5.57397 20.25 8 20.25H14C16.426 20.25 17.9291 19.7602 18.8447 18.8447C19.7602 17.9291 20.25 16.426 20.25 14V12C20.25 11.5858 20.5858 11.25 21 11.25C21.4142 11.25 21.75 11.5858 21.75 12V14C21.75 16.574 21.2398 18.5709 19.9053 19.9053C18.5709 21.2398 16.574 21.75 14 21.75H8C5.42603 21.75 3.42914 21.2398 2.09467 19.9053C0.760201 18.5709 0.25 16.574 0.25 14V8.00001C0.25 5.42604 0.760201 3.42915 2.09467 2.09468Z" fill="#161F1C"/>
</svg>
