<svg width="22" height="22" viewBox="0 0 22 22" fill="none" xmlns="http://www.w3.org/2000/svg">
<path fill-rule="evenodd" clip-rule="evenodd" d="M11 8.17C9.43421 8.17 8.17 9.43421 8.17 11C8.17 11.5104 8.30393 11.9865 8.54029 12.399L12.399 8.54029C11.9865 8.30393 11.5104 8.17 11 8.17ZM6.67 11C6.67 8.60579 8.60579 6.67 11 6.67C12.1978 6.67 13.2761 7.15544 14.0603 7.93967C14.3532 8.23256 14.3532 8.70744 14.0603 9.00033L9.00033 14.0603C8.70744 14.3532 8.23256 14.3532 7.93967 14.0603C7.15544 13.2761 6.67 12.1978 6.67 11Z" />
<path fill-rule="evenodd" clip-rule="evenodd" d="M1.25749 8.00696C3.64841 4.2486 7.15202 1.98 11 1.98C13.2496 1.98 15.4055 2.76361 17.2716 4.17123C17.6023 4.42067 17.6682 4.89095 17.4188 5.22164C17.1693 5.55233 16.699 5.6182 16.3684 5.36877C14.7345 4.13639 12.8904 3.48 11 3.48C7.78815 3.48 4.71189 5.3712 2.52282 8.81254L2.52219 8.81353C2.16761 9.36904 1.965 10.1642 1.965 11.005C1.965 11.8458 2.16761 12.641 2.52219 13.1965C3.27596 14.3796 4.14911 15.393 5.08903 16.2014C5.40308 16.4714 5.43872 16.945 5.16864 17.259C4.89856 17.5731 4.42502 17.6087 4.11097 17.3386C3.05089 16.427 2.08369 15.2999 1.25746 14.003C0.71229 13.1486 0.465 12.054 0.465 11.005C0.465 9.95596 0.712299 8.86138 1.25749 8.00696Z" />
<path fill-rule="evenodd" clip-rule="evenodd" d="M18.5799 6.34559C18.9027 6.08598 19.3748 6.13717 19.6344 6.45993C20.0183 6.9372 20.3954 7.45005 20.7432 7.99813C21.2879 8.85237 21.535 9.94643 21.535 10.995C21.535 12.044 21.2877 13.1386 20.7425 13.993C18.3516 17.7514 14.848 20.02 11 20.02C9.66346 20.02 8.35483 19.7374 7.12896 19.2212C6.7472 19.0605 6.56804 18.6207 6.72877 18.239C6.88951 17.8572 7.32929 17.678 7.71104 17.8388C8.76517 18.2826 9.87654 18.52 11 18.52C14.2119 18.52 17.2881 16.6288 19.4772 13.1875L19.4778 13.1865C19.8324 12.631 20.035 11.8358 20.035 10.995C20.035 10.1542 19.8324 9.35904 19.4778 8.80353L19.4768 8.80187C19.1646 8.30995 18.8217 7.8428 18.4656 7.40007C18.206 7.07731 18.2572 6.6052 18.5799 6.34559Z" />
<path fill-rule="evenodd" clip-rule="evenodd" d="M14.646 10.9624C15.0534 11.0375 15.3227 11.4287 15.2476 11.836C14.9312 13.5519 13.5419 14.9412 11.826 15.2576C11.4187 15.3327 11.0275 15.0634 10.9524 14.656C10.8773 14.2487 11.1466 13.8575 11.554 13.7824C12.6581 13.5788 13.5688 12.6681 13.7724 11.564C13.8475 11.1566 14.2387 10.8873 14.646 10.9624Z" />
<path fill-rule="evenodd" clip-rule="evenodd" d="M9.00033 12.9997C9.29322 13.2926 9.29322 13.7674 9.00033 14.0603L1.53033 21.5303C1.23744 21.8232 0.762563 21.8232 0.46967 21.5303C0.176777 21.2374 0.176777 20.7626 0.46967 20.4697L7.93967 12.9997C8.23256 12.7068 8.70744 12.7068 9.00033 12.9997Z" />
<path fill-rule="evenodd" clip-rule="evenodd" d="M21.5303 0.46967C21.8232 0.762563 21.8232 1.23744 21.5303 1.53033L14.0603 9.00033C13.7674 9.29322 13.2926 9.29322 12.9997 9.00033C12.7068 8.70744 12.7068 8.23256 12.9997 7.93967L20.4697 0.46967C20.7626 0.176777 21.2374 0.176777 21.5303 0.46967Z" />
</svg>
