<svg width="22" height="20" viewBox="0 0 22 20" fill="none" xmlns="http://www.w3.org/2000/svg">
<path fill-rule="evenodd" clip-rule="evenodd" d="M11.0001 7.16997C9.4343 7.16997 8.17009 8.43418 8.17009 9.99997C8.17009 11.5658 9.4343 12.83 11.0001 12.83C12.5659 12.83 13.8301 11.5658 13.8301 9.99997C13.8301 8.43418 12.5659 7.16997 11.0001 7.16997ZM6.67009 9.99997C6.67009 7.60576 8.60587 5.66997 11.0001 5.66997C13.3943 5.66997 15.3301 7.60576 15.3301 9.99997C15.3301 12.3942 13.3943 14.33 11.0001 14.33C8.60587 14.33 6.67009 12.3942 6.67009 9.99997Z" />
<path fill-rule="evenodd" clip-rule="evenodd" d="M1.25758 6.99693C3.6485 3.23857 7.15211 0.969971 11.0001 0.969971C14.8482 0.969971 18.352 3.23877 20.7429 6.99743C21.2879 7.85177 21.5351 8.94613 21.5351 9.99497C21.5351 11.0438 21.2879 12.1382 20.7429 12.9925C18.352 16.7512 14.8482 19.02 11.0001 19.02C7.15194 19.02 3.64819 16.7512 1.25727 12.9925C0.712292 12.1382 0.465088 11.0438 0.465088 9.99497C0.465088 8.94593 0.712386 7.85135 1.25758 6.99693ZM11.0001 2.46997C7.78823 2.46997 4.71198 4.36117 2.52291 7.80251L2.52228 7.8035C2.16769 8.35901 1.96509 9.15422 1.96509 9.99497C1.96509 10.8357 2.16769 11.6309 2.52228 12.1864L2.52291 12.1874C4.71198 15.6288 7.78824 17.52 11.0001 17.52C14.2119 17.52 17.2882 15.6288 19.4773 12.1874L19.4779 12.1864C19.8325 11.6309 20.0351 10.8357 20.0351 9.99497C20.0351 9.15422 19.8325 8.35901 19.4779 7.8035L19.4773 7.80251C17.2882 4.36117 14.2119 2.46997 11.0001 2.46997Z" />
</svg>
