<svg width="22" height="22" viewBox="0 0 22 22" fill="#161F1C" xmlns="http://www.w3.org/2000/svg">
<path fill-rule="evenodd" clip-rule="evenodd" d="M10.9998 13.2502C11.414 13.2502 11.7498 13.586 11.7498 14.0002V17.0002C11.7498 17.4144 11.414 17.7502 10.9998 17.7502C10.5856 17.7502 10.2498 17.4144 10.2498 17.0002V14.0002C10.2498 13.586 10.5856 13.2502 10.9998 13.2502Z" />
<path fill-rule="evenodd" clip-rule="evenodd" d="M13.3988 1.24492L13.3997 1.24561L20.3302 6.78602C20.8438 7.1996 21.2287 7.8053 21.4643 8.42285C21.7 9.0406 21.8164 9.74917 21.71 10.401L21.7096 10.4038L20.3796 18.3638L20.3792 18.366C20.078 20.1353 18.3967 21.5602 16.5998 21.5602H5.39981C3.59361 21.5602 1.92125 20.1458 1.6203 18.3652L0.290848 10.4084L0.290417 10.4059C0.177594 9.75202 0.291723 9.04171 0.527828 8.42285C0.764085 7.80359 1.15239 7.19746 1.6719 6.78405L1.67313 6.78307L8.60062 1.23508C9.93599 0.164569 12.0559 0.166334 13.3988 1.24492ZM12.46 2.41478C11.6629 1.77415 10.3234 1.77633 9.53901 2.4053L2.6065 7.95731C2.34662 8.16388 2.09535 8.52228 1.9293 8.95753C1.7632 9.39289 1.71232 9.82655 1.76878 10.152L1.76957 10.1566L3.09932 18.1152V18.1152C3.27864 19.1743 4.3262 20.0602 5.39981 20.0602H16.5998C17.6625 20.0602 18.7208 19.1657 18.9003 18.1155L18.9004 18.1143L20.2296 10.1593L20.2298 10.158C20.283 9.83001 20.2294 9.39418 20.0628 8.95753C19.8961 8.52059 19.6464 8.16161 19.3903 7.95508L19.3894 7.95436L12.4615 2.41601L12.46 2.41478Z"/>
</svg>
