<svg width="23" height="22" viewBox="0 0 23 22" fill="none" xmlns="http://www.w3.org/2000/svg">
<path fill-rule="evenodd" clip-rule="evenodd" d="M1.521 6.06434C1.72847 5.70583 2.18729 5.58339 2.5458 5.79087L10.9999 10.6834L19.3942 5.82099C19.7526 5.61337 20.2115 5.73562 20.4191 6.09405C20.6267 6.45247 20.5045 6.91134 20.146 7.11896L11.376 12.199C11.1436 12.3336 10.8569 12.3337 10.6245 12.1991L1.79447 7.08914C1.43597 6.88167 1.31353 6.42285 1.521 6.06434Z" fill="white"/>
<path fill-rule="evenodd" clip-rule="evenodd" d="M11.0001 10.79C11.4143 10.79 11.7501 11.1258 11.7501 11.54V20.61C11.7501 21.0242 11.4143 21.36 11.0001 21.36C10.5859 21.36 10.2501 21.0242 10.2501 20.61V11.54C10.2501 11.1258 10.5859 10.79 11.0001 10.79Z" fill="white"/>
<path fill-rule="evenodd" clip-rule="evenodd" d="M11.0001 1.75C10.3429 1.75 9.72758 1.89241 9.29727 2.13399L9.29373 2.13597L3.95373 5.09599C3.49377 5.35067 3.03146 5.82777 2.68243 6.4197C2.33336 7.0117 2.14014 7.64606 2.14014 8.17V13.83C2.14014 14.354 2.33336 14.9883 2.68243 15.5803C3.03146 16.1723 3.49347 16.6492 3.95343 16.9039L9.29727 19.866C9.72758 20.1076 10.3429 20.25 11.0001 20.25C11.6573 20.25 12.2727 20.1076 12.703 19.8661L12.7077 19.8634L13.8223 19.2483C13.4549 18.5773 13.2501 17.807 13.2501 17C13.2501 15.5059 13.9387 14.1621 15.0329 13.2933C15.8488 12.6431 16.8818 12.25 18.0001 12.25C18.6626 12.25 19.2901 12.3838 19.8601 12.6284V8.17C19.8601 7.64606 19.6669 7.0117 19.3178 6.4197C18.9688 5.82777 18.5068 5.35084 18.0468 5.09615L12.703 2.134C12.2727 1.89242 11.6573 1.75 11.0001 1.75ZM13.4354 0.824978C12.7261 0.427287 11.8422 0.25 11.0001 0.25C10.1581 0.25 9.27418 0.427287 8.56481 0.824978L3.22681 3.78389C2.4769 4.19922 1.83873 4.89736 1.39033 5.65782C0.941905 6.41831 0.640137 7.31395 0.640137 8.17V13.83C0.640137 14.6861 0.941905 15.5817 1.39033 16.3422C1.83873 17.1027 2.4766 17.8007 3.22651 18.216C3.22641 18.2159 3.22661 18.216 3.22651 18.216L8.56296 21.174C8.56357 21.1744 8.56417 21.1747 8.56477 21.175C9.27415 21.5727 10.158 21.75 11.0001 21.75C11.842 21.75 12.7256 21.5728 13.4349 21.1754C13.4357 21.1749 13.4365 21.1745 13.4373 21.174L15.2625 20.1667C15.46 20.0576 15.598 19.8655 15.6381 19.6435C15.6783 19.4215 15.6164 19.1932 15.4696 19.0219C15.3737 18.9101 15.2945 18.8002 15.2338 18.6923C15.2289 18.6836 15.2238 18.6749 15.2185 18.6663C14.9206 18.1833 14.7501 17.6094 14.7501 17C14.7501 15.9746 15.2211 15.0588 15.9663 14.4675L15.9676 14.4665C16.5317 14.0169 17.2386 13.75 18.0001 13.75C18.814 13.75 19.5401 14.0411 20.1074 14.5354C20.309 14.7111 20.5888 14.7661 20.842 14.6799C21.0951 14.5937 21.2831 14.3793 21.3356 14.1171C21.3604 13.9927 21.3602 13.8886 21.3601 13.8385C21.3601 13.8355 21.3601 13.8326 21.3601 13.83V8.17C21.3601 7.31395 21.0583 6.41831 20.6099 5.65782C20.1615 4.89736 19.5236 4.19939 18.7737 3.78406C18.7738 3.78411 18.7736 3.784 18.7737 3.78406L13.4373 0.826012C13.4367 0.825667 13.4361 0.825323 13.4354 0.824978Z" fill="white"/>
<path fill-rule="evenodd" clip-rule="evenodd" d="M18.0001 13.75C17.2386 13.75 16.5317 14.0169 15.9676 14.4665L15.9663 14.4675C15.2211 15.0588 14.7501 15.9746 14.7501 17C14.7501 17.6094 14.9206 18.1833 15.2185 18.6663L15.2248 18.6765C15.7846 19.6177 16.8142 20.25 18.0001 20.25C18.8228 20.25 19.5646 19.9499 20.1284 19.4425C20.1349 19.4367 20.1415 19.431 20.1482 19.4254C20.3911 19.2216 20.6053 18.9684 20.7723 18.6821L20.7818 18.6663C21.0796 18.1833 21.2501 17.6094 21.2501 17C21.2501 15.2042 19.7959 13.75 18.0001 13.75ZM15.0329 13.2933C15.8488 12.6431 16.8818 12.25 18.0001 12.25C20.6243 12.25 22.7501 14.3758 22.7501 17C22.7501 17.8874 22.5025 18.7305 22.0633 19.4459C21.8132 19.8725 21.4926 20.2535 21.1222 20.5662C20.2872 21.3134 19.1928 21.75 18.0001 21.75C16.2682 21.75 14.7595 20.8246 13.9386 19.4486C13.4984 18.7327 13.2501 17.8885 13.2501 17C13.2501 15.5059 13.9387 14.1621 15.0329 13.2933Z" fill="white"/>
<path fill-rule="evenodd" clip-rule="evenodd" d="M16.4186 15.4009C16.7107 15.1073 17.1856 15.1062 17.4792 15.3984L19.5992 17.5084C19.8928 17.8006 19.8939 18.2755 19.6017 18.5691C19.3095 18.8626 18.8346 18.8638 18.5411 18.5716L16.4211 16.4616C16.1275 16.1694 16.1264 15.6945 16.4186 15.4009Z" fill="white"/>
<path fill-rule="evenodd" clip-rule="evenodd" d="M19.5817 15.4309C19.8739 15.7245 19.8728 16.1994 19.5792 16.4916L17.4592 18.6016C17.1656 18.8938 16.6907 18.8927 16.3985 18.5991C16.1063 18.3055 16.1075 17.8306 16.401 17.5384L18.521 15.4284C18.8146 15.1362 19.2895 15.1374 19.5817 15.4309Z" fill="white"/>
</svg>
