<svg width="102" height="100" viewBox="0 0 68 66" fill="none" xmlns="http://www.w3.org/2000/svg">
<path fill-rule="evenodd" clip-rule="evenodd" d="M63.3833 51.1923C63.2583 45.6788 58.6855 41.3149 53.1632 41.4396L53.1601 41.4397C50.8244 41.4893 48.6737 42.3551 46.9555 43.7656C44.7097 45.6362 43.3174 48.4719 43.3922 51.6074L43.3927 51.6315C43.4175 53.4831 43.9872 55.2439 44.9321 56.7083L44.9556 56.7454C46.7187 59.5957 49.9259 61.4647 53.5758 61.3936C56.1133 61.3158 58.3768 60.3413 60.092 58.7534L60.1174 58.7299C60.8645 58.0587 61.5299 57.243 62.0123 56.3763L62.0421 56.3242C62.9404 54.8049 63.4329 53.0497 63.3836 51.2015L63.3833 51.1923ZM67.9951 51.0835C67.8101 43.0318 61.129 36.6549 53.0604 36.8363C49.6173 36.9098 46.4809 38.1909 44.0178 40.2155L44.0074 40.2241C40.7235 42.9556 38.6743 47.112 38.7801 51.7049C38.8191 54.4454 39.6588 57.0321 41.042 59.183C43.6467 63.3795 48.3632 66.1059 53.6811 65.9968L53.7022 65.9963C57.3666 65.8877 60.6915 64.4729 63.2164 62.1409C64.3022 61.1631 65.2869 59.9665 66.03 58.6388C67.3358 56.4201 68.0675 53.8275 67.9951 51.0835Z" fill="#A1A5AC"/>
<path fill-rule="evenodd" clip-rule="evenodd" d="M2.70907 17.8479C3.34712 16.7475 4.75816 16.3716 5.8607 17.0085L31.8603 32.0267L57.6757 17.1009C58.778 16.4636 60.1892 16.8389 60.8277 17.9391C61.4662 19.0394 61.0902 20.4479 59.9879 21.0852L33.017 36.6791C32.3022 37.0923 31.4206 37.0925 30.7056 36.6795L3.55011 20.9937C2.44756 20.3568 2.07102 18.9484 2.70907 17.8479Z" fill="#A1A5AC"/>
<path fill-rule="evenodd" clip-rule="evenodd" d="M31.8612 32.354C33.135 32.354 34.1677 33.3847 34.1677 34.6562V62.4979C34.1677 63.7694 33.135 64.8001 31.8612 64.8001C30.5873 64.8001 29.5546 63.7694 29.5546 62.4979V34.6562C29.5546 33.3847 30.5873 32.354 31.8612 32.354Z" fill="#A1A5AC"/>
<path fill-rule="evenodd" clip-rule="evenodd" d="M31.8608 4.60446C29.8396 4.60446 27.9473 5.0416 26.6239 5.78317L26.613 5.78926L10.1905 14.8754C8.77597 15.6572 7.35421 17.1218 6.28081 18.9388C5.20728 20.756 4.61305 22.7032 4.61305 24.3116V41.6859C4.61305 43.2942 5.20728 45.2414 6.28081 47.0586C7.35421 48.8757 8.77505 50.3397 10.1896 51.1215L26.6239 60.2142C27.9473 60.9558 29.8396 61.393 31.8608 61.393C33.882 61.393 35.7743 60.9558 37.0977 60.2143L37.1123 60.2061L40.5399 58.3179C39.4102 56.2584 38.7804 53.8936 38.7804 51.4166C38.7804 46.8303 40.898 42.705 44.2631 40.0383C46.7723 38.0423 49.9491 36.8358 53.3884 36.8358C55.4259 36.8358 57.3556 37.2465 59.1085 37.9972V24.3116C59.1085 22.7032 58.5143 20.756 57.4408 18.9388C56.3674 17.1218 54.9465 15.6578 53.532 14.8759L37.0977 5.7832C35.7743 5.04163 33.882 4.60446 31.8608 4.60446ZM39.3503 1.76498C37.1687 0.544207 34.4504 0 31.8608 0C29.2711 0 26.5529 0.544207 24.3713 1.76498L7.95497 10.8478C5.64872 12.1227 3.6861 14.2657 2.30711 16.6001C0.92805 18.9345 0 21.6838 0 24.3116V41.6859C0 44.3136 0.92805 47.0629 2.30711 49.3974C3.6861 51.7317 5.6478 53.8742 7.95405 55.1491C7.95375 55.149 7.95436 55.1493 7.95405 55.1491L24.3656 64.2293C24.3675 64.2303 24.3693 64.2314 24.3712 64.2324C26.5528 65.4532 29.2711 65.9974 31.8608 65.9974C34.4497 65.9974 37.1672 65.4535 39.3485 64.2334C39.351 64.232 39.3535 64.2307 39.356 64.2293L44.9692 61.137C45.5767 60.8024 46.0009 60.2126 46.1244 59.5311C46.2479 58.8497 46.0575 58.1489 45.606 57.6231C45.3111 57.2798 45.0675 56.9424 44.8809 56.6113C44.8657 56.5844 44.85 56.5579 44.8338 56.5316C43.9178 55.0489 43.3934 53.2872 43.3934 51.4166C43.3934 48.2688 44.8419 45.4578 47.1336 43.6428L47.1376 43.6396C48.8724 42.2594 51.0464 41.4402 53.3884 41.4402C55.8912 41.4402 58.1245 42.3337 59.869 43.8511C60.489 44.3904 61.3497 44.5594 62.1281 44.2947C62.9065 44.0301 63.4848 43.3718 63.6461 42.567C63.7226 42.1852 63.7219 41.8658 63.7216 41.7117C63.7216 41.7025 63.7216 41.6939 63.7216 41.6859V24.3116C63.7216 21.6838 62.7935 18.9345 61.4145 16.6001C60.0355 14.2657 58.0738 12.1232 55.7675 10.8483C55.7678 10.8485 55.7672 10.8481 55.7675 10.8483L39.356 1.76815C39.3541 1.76709 39.3522 1.76603 39.3503 1.76498Z" fill="#A1A5AC"/>
<path d="M53.3962 48.3469C52.0011 48.3469 51.0975 48.9351 50.3881 49.9841C50.2594 50.1744 50.2991 50.4353 50.4786 50.5754L51.2326 51.1637C51.4139 51.3051 51.6718 51.272 51.8138 51.0891C52.2516 50.5246 52.5764 50.1997 53.2602 50.1997C53.7979 50.1997 54.463 50.5558 54.463 51.0923C54.463 51.498 54.1376 51.7063 53.6067 52.0126C52.9876 52.3698 52.1683 52.8143 52.1683 53.9264V54.1024C52.1683 54.3408 52.3561 54.5341 52.5877 54.5341H53.8544C54.0861 54.5341 54.2739 54.3408 54.2739 54.1024V53.9986C54.2739 53.2277 56.4634 53.1956 56.4634 51.1095C56.4634 49.5386 54.8798 48.3469 53.3962 48.3469ZM53.2211 55.064C52.5535 55.064 52.0103 55.6229 52.0103 56.3099C52.0103 56.9969 52.5535 57.5558 53.2211 57.5558C53.8887 57.5558 54.4318 56.9969 54.4318 56.3099C54.4318 55.6229 53.8887 55.064 53.2211 55.064Z" fill="#A1A5AC"/>
</svg>
