<svg width="14" height="16" viewBox="0 0 14 16" fill="none" xmlns="http://www.w3.org/2000/svg">
<path fill-rule="evenodd" clip-rule="evenodd" d="M2.19557 3.16C1.80809 3.47788 1.5 4.05842 1.5 5.1875V12.5C1.5 13.5226 1.80121 14.1164 2.20523 14.4653C2.62296 14.8261 3.23649 15 4 15H10C10.7635 15 11.377 14.8261 11.7948 14.4653C12.1988 14.1164 12.5 13.5226 12.5 12.5V5.1875C12.5 4.05842 12.1919 3.47788 11.8044 3.16C11.4754 2.8901 11.0175 2.74829 10.4385 2.70346C10.206 3.66146 9.34097 4.375 8.3125 4.375H5.6875C5.0844 4.375 4.53874 4.13086 4.14143 3.73355C3.86122 3.45334 3.65721 3.09935 3.56129 2.70347C2.9824 2.74832 2.52452 2.89013 2.19557 3.16ZM1.56131 2.38688C2.23884 1.83105 3.13232 1.6875 4 1.6875C4.27614 1.6875 4.5 1.91136 4.5 2.1875C4.5 2.51441 4.63085 2.80876 4.84853 3.02644C5.06622 3.24413 5.3606 3.375 5.6875 3.375H8.3125C8.96636 3.375 9.5 2.84136 9.5 2.1875C9.5 1.91136 9.72386 1.6875 10 1.6875C10.8677 1.6875 11.7612 1.83105 12.4387 2.38688C13.1368 2.95962 13.5 3.87908 13.5 5.1875V12.5C13.5 13.7274 13.13 14.6336 12.4484 15.2222C11.7805 15.7989 10.894 16 10 16H4C3.10601 16 2.21954 15.7989 1.55164 15.2222C0.870038 14.6336 0.5 13.7274 0.5 12.5V5.1875C0.5 3.87908 0.86316 2.95962 1.56131 2.38688Z" fill="#161F1C"/>
<path fill-rule="evenodd" clip-rule="evenodd" d="M5.6875 1C5.03364 1 4.5 1.53364 4.5 2.1875C4.5 2.51441 4.63085 2.80876 4.84853 3.02644C5.06622 3.24413 5.3606 3.375 5.6875 3.375H8.3125C8.96636 3.375 9.5 2.84136 9.5 2.1875C9.5 1.86059 9.36915 1.56624 9.15147 1.34856C8.93378 1.13087 8.6394 1 8.3125 1H5.6875ZM3.5 2.1875C3.5 0.981358 4.48136 0 5.6875 0H8.3125C8.9156 0 9.46126 0.24414 9.85857 0.641449C10.2559 1.03877 10.5 1.58441 10.5 2.1875C10.5 3.39364 9.51864 4.375 8.3125 4.375H5.6875C5.0844 4.375 4.53874 4.13086 4.14143 3.73355C3.74411 3.33623 3.5 2.79059 3.5 2.1875Z" fill="#161F1C"/>
<path fill-rule="evenodd" clip-rule="evenodd" d="M3.5 8.75C3.5 8.47386 3.72386 8.25 4 8.25H7C7.27614 8.25 7.5 8.47386 7.5 8.75C7.5 9.02614 7.27614 9.25 7 9.25H4C3.72386 9.25 3.5 9.02614 3.5 8.75Z" fill="#161F1C"/>
<path fill-rule="evenodd" clip-rule="evenodd" d="M3.5 11.75C3.5 11.4739 3.72386 11.25 4 11.25H10C10.2761 11.25 10.5 11.4739 10.5 11.75C10.5 12.0261 10.2761 12.25 10 12.25H4C3.72386 12.25 3.5 12.0261 3.5 11.75Z" fill="#161F1C"/>
</svg>
