<svg width="20" height="22" viewBox="0 0 20 22" fill="none" xmlns="http://www.w3.org/2000/svg">
<path d="M10.3975 5.43994C10.3975 5.1638 10.1736 4.93994 9.89746 4.93994C9.62132 4.93994 9.39746 5.1638 9.39746 5.43994H10.3975ZM9.39746 8.76994C9.39746 9.04608 9.62132 9.26994 9.89746 9.26994C10.1736 9.26994 10.3975 9.04608 10.3975 8.76994H9.39746ZM2.62736 12.04L2.19926 11.7817L2.19843 11.783L2.62736 12.04ZM1.35736 14.16L0.928432 13.903L0.927747 13.9042L1.35736 14.16ZM2.55736 17.41L2.39924 17.8843L2.39954 17.8844L2.55736 17.41ZM17.2874 17.41L17.4452 17.8844L17.4455 17.8843L17.2874 17.41ZM18.4874 14.16L18.9164 13.9033L18.9163 13.903L18.4874 14.16ZM17.2174 12.04L17.6463 11.783L17.6455 11.7817L17.2174 12.04ZM16.5874 7.66L17.0874 7.66L17.0874 7.65863L16.5874 7.66ZM9.39746 5.43994V8.76994H10.3975V5.43994H9.39746ZM9.91736 0.5C5.96122 0.5 2.75736 3.70386 2.75736 7.66H3.75736C3.75736 4.25614 6.5135 1.5 9.91736 1.5V0.5ZM2.75736 7.66V9.76H3.75736V7.66H2.75736ZM2.75736 9.76C2.75736 10.0412 2.69777 10.4196 2.5916 10.8046C2.48535 11.1899 2.34305 11.5434 2.19926 11.7817L3.05545 12.2983C3.26167 11.9566 3.43437 11.5101 3.55562 11.0704C3.67695 10.6304 3.75736 10.1588 3.75736 9.76H2.75736ZM2.19843 11.783L0.928434 13.903L1.78628 14.417L3.05628 12.297L2.19843 11.783ZM0.927747 13.9042C0.467913 14.6765 0.381193 15.5261 0.65584 16.2695C0.930566 17.0132 1.54851 17.6008 2.39924 17.8843L2.71547 16.9357C2.12621 16.7392 1.75415 16.3568 1.59388 15.923C1.43352 15.4889 1.4668 14.9535 1.78697 14.4158L0.927747 13.9042ZM2.39954 17.8844C7.28199 19.5085 12.5627 19.5085 17.4452 17.8844L17.1295 16.9356C12.452 18.4915 7.39272 18.4915 2.71517 16.9356L2.39954 17.8844ZM17.4455 17.8843C19.1005 17.3327 19.8095 15.3959 18.9164 13.9033L18.0583 14.4167C18.6252 15.3641 18.1742 16.5873 17.1292 16.9357L17.4455 17.8843ZM18.9163 13.903L17.6463 11.783L16.7884 12.297L18.0584 14.417L18.9163 13.903ZM17.6455 11.7817C17.502 11.544 17.3597 11.1884 17.2532 10.8012C17.1468 10.4143 17.0874 10.0359 17.0874 9.76H16.0874C16.0874 10.1541 16.1679 10.6257 16.289 11.0663C16.41 11.5066 16.5827 11.956 16.7893 12.2983L17.6455 11.7817ZM17.0874 9.76V7.66H16.0874V9.76H17.0874ZM17.0874 7.65863C17.0766 3.72383 13.8538 0.5 9.91736 0.5V1.5C13.301 1.5 16.0781 4.27617 16.0874 7.66137L17.0874 7.65863ZM12.7274 17.8198C12.7274 19.3737 11.4512 20.6498 9.89738 20.6498V21.6498C12.0035 21.6498 13.7274 19.926 13.7274 17.8198H12.7274ZM9.89738 20.6498C9.12733 20.6498 8.41249 20.3278 7.90094 19.8163L7.19383 20.5234C7.88228 21.2118 8.84744 21.6498 9.89738 21.6498V20.6498ZM7.90094 19.8163C7.38938 19.3047 7.06738 18.5899 7.06738 17.8198H6.06738C6.06738 18.8698 6.50538 19.8349 7.19383 20.5234L7.90094 19.8163Z" fill="#161F1C"/>
</svg>
