<svg width="20" height="22" viewBox="0 0 20 22" fill="#161F1C" xmlns="http://www.w3.org/2000/svg">
<path d="M10.75 5.43994C10.75 5.02573 10.4142 4.68994 10 4.68994C9.58579 4.68994 9.25 5.02573 9.25 5.43994H10.75ZM9.25 8.76994C9.25 9.18416 9.58579 9.51994 10 9.51994C10.4142 9.51994 10.75 9.18416 10.75 8.76994H9.25ZM2.7299 12.04L2.08775 11.6525L2.08651 11.6546L2.7299 12.04ZM1.4599 14.16L0.816508 13.7746L0.81548 13.7763L1.4599 14.16ZM2.6599 17.41L2.42273 18.1215L2.42317 18.1217L2.6599 17.41ZM17.3899 17.41L17.6266 18.1217L17.6271 18.1215L17.3899 17.41ZM18.5899 14.16L19.2335 13.7749L19.2333 13.7746L18.5899 14.16ZM17.3199 12.04L17.9633 11.6546L17.962 11.6525L17.3199 12.04ZM16.6899 7.66L17.4399 7.66L17.4399 7.65795L16.6899 7.66ZM9.25 5.43994V8.76994H10.75V5.43994H9.25ZM10.0199 0.25C5.92568 0.25 2.6099 3.56579 2.6099 7.66H4.1099C4.1099 4.39421 6.75411 1.75 10.0199 1.75V0.25ZM2.6099 7.66V9.76H4.1099V7.66H2.6099ZM2.6099 9.76C2.6099 10.0118 2.55551 10.3669 2.45313 10.7381C2.35064 11.1098 2.21593 11.4401 2.08776 11.6525L3.37204 12.4275C3.59386 12.0599 3.77416 11.5902 3.89916 11.1369C4.02428 10.6831 4.1099 10.1882 4.1099 9.76H2.6099ZM2.08651 11.6546L0.81651 13.7746L2.10329 14.5454L3.37329 12.4254L2.08651 11.6546ZM0.81548 13.7763C0.320729 14.6072 0.220649 15.5354 0.52387 16.3562C0.827208 17.1773 1.50662 17.8161 2.42273 18.1215L2.89707 16.6985C2.37318 16.5239 2.06259 16.1927 1.93093 15.8363C1.79915 15.4796 1.81907 15.0228 2.10432 14.5437L0.81548 13.7763ZM2.42317 18.1217C7.35685 19.7628 12.6929 19.7628 17.6266 18.1217L17.1532 16.6983C12.5268 18.2372 7.52295 18.2372 2.89662 16.6983L2.42317 18.1217ZM17.6271 18.1215C19.4347 17.519 20.2082 15.4038 19.2335 13.7749L17.9463 14.5451C18.4316 15.3562 18.0451 16.401 17.1527 16.6985L17.6271 18.1215ZM19.2333 13.7746L17.9633 11.6546L16.6765 12.4254L17.9465 14.5454L19.2333 13.7746ZM17.962 11.6525C17.8344 11.441 17.6996 11.1089 17.5968 10.7349C17.4941 10.3614 17.4399 10.0064 17.4399 9.76H15.9399C15.9399 10.1836 16.0257 10.6786 16.1505 11.1326C16.2752 11.5861 16.4554 12.059 16.6778 12.4275L17.962 11.6525ZM17.4399 9.76V7.66H15.9399V9.76H17.4399ZM17.4399 7.65795C17.4288 3.58574 14.0945 0.25 10.0199 0.25V1.75C13.2653 1.75 15.931 4.41426 15.9399 7.66205L17.4399 7.65795ZM12.5799 17.8198C12.5799 19.2356 11.4157 20.3998 9.99992 20.3998V21.8998C12.2441 21.8998 14.0799 20.064 14.0799 17.8198H12.5799ZM9.99992 20.3998C9.29984 20.3998 8.64758 20.1068 8.18025 19.6395L7.11959 20.7002C7.85226 21.4328 8.88 21.8998 9.99992 21.8998V20.3998ZM8.18025 19.6395C7.71292 19.1722 7.41992 18.5199 7.41992 17.8198H5.91992C5.91992 18.9397 6.38692 19.9675 7.11959 20.7002L8.18025 19.6395Z" />
</svg>
