<svg width="22" height="22" viewBox="0 0 22 22" fill="none" xmlns="http://www.w3.org/2000/svg">
<path fill-rule="evenodd" clip-rule="evenodd" d="M2.90533 2.90533C2.18991 3.62075 1.75 4.67044 1.75 6V8C1.75 8.41421 1.41421 8.75 1 8.75C0.585786 8.75 0.25 8.41421 0.25 8V6C0.25 4.32956 0.810085 2.87925 1.84467 1.84467C2.87925 0.810085 4.32956 0.25 6 0.25H16C17.6704 0.25 19.1207 0.810085 20.1553 1.84467C21.1899 2.87925 21.75 4.32956 21.75 6V8C21.75 8.41421 21.4142 8.75 21 8.75C20.5858 8.75 20.25 8.41421 20.25 8V6C20.25 4.67044 19.8101 3.62075 19.0947 2.90533C18.3793 2.18991 17.3296 1.75 16 1.75H6C4.67044 1.75 3.62075 2.18991 2.90533 2.90533Z" />
<path fill-rule="evenodd" clip-rule="evenodd" d="M1 13.25C1.41421 13.25 1.75 13.5858 1.75 14V16C1.75 17.3296 2.18991 18.3793 2.90533 19.0947C3.62075 19.8101 4.67044 20.25 6 20.25H16C17.3296 20.25 18.3793 19.8101 19.0947 19.0947C19.8101 18.3793 20.25 17.3296 20.25 16V14C20.25 13.5858 20.5858 13.25 21 13.25C21.4142 13.25 21.75 13.5858 21.75 14V16C21.75 17.6704 21.1899 19.1207 20.1553 20.1553C19.1207 21.1899 17.6704 21.75 16 21.75H6C4.32956 21.75 2.87925 21.1899 1.84467 20.1553C0.810085 19.1207 0.25 17.6704 0.25 16V14C0.25 13.5858 0.585786 13.25 1 13.25Z" />
<path fill-rule="evenodd" clip-rule="evenodd" d="M5.05101 7.88409C5.25863 7.52566 5.71749 7.40341 6.07592 7.61102L10.9998 10.4632L15.8838 7.63121C16.2421 7.42344 16.701 7.54548 16.9088 7.90382C17.1166 8.26215 16.9945 8.72107 16.6362 8.92885L11.3762 11.9788C11.1437 12.1137 10.8567 12.1137 10.6241 11.979L5.32407 8.909C4.96565 8.70138 4.8434 8.24251 5.05101 7.88409Z" />
<path fill-rule="evenodd" clip-rule="evenodd" d="M11 10.57C11.4142 10.57 11.75 10.9058 11.75 11.32V16.77C11.75 17.1842 11.4142 17.52 11 17.52C10.5858 17.52 10.25 17.1842 10.25 16.77V11.32C10.25 10.9058 10.5858 10.57 11 10.57Z" />
<path fill-rule="evenodd" clip-rule="evenodd" d="M12.6166 4.6357L15.8127 6.41355C16.324 6.6944 16.7421 7.15829 17.0304 7.64876C17.3191 8.14016 17.52 8.73039 17.52 9.31002V12.7C17.52 13.2822 17.315 13.8731 17.0257 14.3628C16.7365 14.8523 16.3192 15.315 15.8146 15.5954V15.5954L12.6146 17.3754L12.6118 17.3769C12.1289 17.6429 11.544 17.755 11.0012 17.755C10.4592 17.755 9.87479 17.6432 9.39457 17.3749V17.3749L6.1996 15.5978L6.19739 15.5965C5.68608 15.3157 5.26791 14.8518 4.97965 14.3613C4.69086 13.8699 4.49001 13.2797 4.49001 12.7V9.31002C4.49001 8.72785 4.695 8.13694 4.98427 7.64729C5.27345 7.15779 5.69083 6.69504 6.19541 6.41461L9.39152 4.63674C9.87257 4.36226 10.4579 4.2475 11.0012 4.2475C11.546 4.2475 12.1325 4.36282 12.6166 4.6357ZM11.0012 5.7475C10.6438 5.7475 10.3312 5.82699 10.1331 5.94059L10.1246 5.94548L6.92458 7.72545C6.70932 7.84504 6.46648 8.08737 6.27574 8.41025C6.08501 8.7331 5.99001 9.06218 5.99001 9.31002V12.7C5.99001 12.9504 6.08415 13.2802 6.27286 13.6013C6.46167 13.9226 6.70271 14.163 6.9204 14.2823L6.92458 14.2846L10.1259 16.0653C10.3256 16.1769 10.6409 16.255 11.0012 16.255C11.3603 16.255 11.6799 16.1774 11.887 16.0637L11.8882 16.063L15.0854 14.2846C15.3007 14.165 15.5435 13.9227 15.7343 13.5998C15.925 13.2769 16.02 12.9479 16.02 12.7V9.31002C16.02 9.05964 15.9259 8.72988 15.7371 8.40878C15.5483 8.0875 15.3073 7.84704 15.0896 7.72776L15.0854 7.72546L11.8809 5.94293C11.6755 5.8268 11.3581 5.7475 11.0012 5.7475Z" />
</svg>
