<svg width="20" height="22" viewBox="0 0 20 22" fill="none" stroke="#161F1C" xmlns="http://www.w3.org/2000/svg">
<path d="M1 8.10986V13.8799C1 15.9999 1 15.9999 3 17.3499L8.5 20.5299C9.33 21.0099 10.68 21.0099 11.5 20.5299L17 17.3499C19 15.9999 19 15.9999 19 13.8899V8.10986C19 5.99986 19 5.99986 17 4.64986L11.5 1.46986C10.68 0.989863 9.33 0.989863 8.5 1.46986L3 4.64986C1 5.99986 1 5.99986 1 8.10986Z" stroke-width="1.5" stroke-linecap="round" stroke-linejoin="round"/>
<path d="M10 13.9999C11.6569 13.9999 13 12.6567 13 10.9999C13 9.34301 11.6569 7.99986 10 7.99986C8.34315 7.99986 7 9.34301 7 10.9999C7 12.6567 8.34315 13.9999 10 13.9999Z" stroke-width="1.5" stroke-linecap="round" stroke-linejoin="round"/>
</svg>
