<svg width="16" height="16" viewBox="0 0 16 16" fill="none" xmlns="http://www.w3.org/2000/svg">
<path fill-rule="evenodd" clip-rule="evenodd" d="M11.0046 1.94372V1.94372L14.4106 5.33467C15.999 6.93169 16.0004 9.51254 14.4096 11.1033L11.1171 14.3958L11.1162 14.3968C9.51915 15.9853 6.9383 15.9866 5.34751 14.3958L1.95001 10.9983C1.13819 10.1865 0.702836 9.06762 0.754061 7.91507L0.754143 7.9133L0.934143 4.1633L0.934198 4.16218C1.02209 2.41318 2.42005 1.01481 4.17782 0.935316V0.935316L7.92498 0.755456L7.92607 0.7554C9.07396 0.695747 10.1936 1.13281 11.0046 1.94372ZM10.2975 2.65083C9.68384 2.03715 8.83877 1.70908 7.97715 1.75409L7.97504 1.7542L4.22504 1.9342L4.22354 1.93427C2.98185 1.99015 1.99532 2.97635 1.93296 4.21184V4.21184L1.75307 7.95947V7.95947C1.71455 8.83163 2.04414 9.67824 2.65712 10.2912L6.05462 13.6887C7.25372 14.8878 9.20261 14.8893 10.4106 13.6881V13.6881L13.7025 10.3962C14.9015 9.19727 14.9031 7.24872 13.7024 6.04068L13.7016 6.03988L10.2975 2.65083Z" fill="#161F1C"/>
<path fill-rule="evenodd" clip-rule="evenodd" d="M6.30107 4.91978C5.54168 4.91978 4.92607 5.53538 4.92607 6.29478C4.92607 7.05417 5.54168 7.66978 6.30107 7.66978C7.06046 7.66978 7.67607 7.05417 7.67607 6.29478C7.67607 5.53538 7.06046 4.91978 6.30107 4.91978ZM3.92607 6.29478C3.92607 4.9831 4.98939 3.91978 6.30107 3.91978C7.61274 3.91978 8.67607 4.9831 8.67607 6.29478C8.67607 7.60645 7.61274 8.66978 6.30107 8.66978C4.98939 8.66978 3.92607 7.60645 3.92607 6.29478Z" fill="#161F1C"/>
<path fill-rule="evenodd" clip-rule="evenodd" d="M12.2796 8.56622C12.4749 8.76148 12.4749 9.07807 12.2796 9.27333L9.27962 12.2733C9.08436 12.4686 8.76778 12.4686 8.57251 12.2733C8.37725 12.0781 8.37725 11.7615 8.57251 11.5662L11.5725 8.56622C11.7678 8.37096 12.0844 8.37096 12.2796 8.56622Z" fill="#161F1C"/>
</svg>
