<svg width="19" height="19" viewBox="0 0 19 19" fill="none" xmlns="http://www.w3.org/2000/svg">
<path fill-rule="evenodd" clip-rule="evenodd" d="M4.26946 6.64132C4.44328 6.34125 4.82745 6.23889 5.12753 6.41271L9.24984 8.80054L13.3388 6.42959C13.6388 6.25564 14.023 6.35782 14.1969 6.65782C14.3709 6.95782 14.2687 7.34203 13.9687 7.51598L9.56497 10.0695C9.37027 10.1824 9.13003 10.1824 8.93527 10.0696L4.49807 7.49938C4.198 7.32557 4.09565 6.9414 4.26946 6.64132Z" fill="white"/>
<path fill-rule="evenodd" clip-rule="evenodd" d="M9.25 8.89C9.59678 8.89 9.87791 9.17112 9.87791 9.51791V14.0807C9.87791 14.4275 9.59678 14.7086 9.25 14.7086C8.90322 14.7086 8.62209 14.4275 8.62209 14.0807V9.51791C8.62209 9.17112 8.90322 8.89 9.25 8.89Z" fill="white"/>
<path fill-rule="evenodd" clip-rule="evenodd" d="M9.24931 3.5957C9.70495 3.59444 10.195 3.68845 10.5994 3.91115L10.6017 3.91243L13.2792 5.40176C13.7073 5.63689 14.0573 6.02528 14.2987 6.43593C14.5404 6.84734 14.7086 7.34149 14.7086 7.82675V10.6733C14.7086 11.1606 14.537 11.6554 14.2948 12.0653C14.0526 12.4752 13.7031 12.8627 13.2805 13.0975L10.6017 14.5876L10.5994 14.5889C10.1951 14.8115 9.70544 14.9053 9.25105 14.9053C8.79727 14.9053 8.30796 14.8117 7.90591 14.5872V14.5872L5.2292 13.0982C4.80113 12.8631 4.45104 12.4747 4.2097 12.0641C3.96792 11.6527 3.79976 11.1585 3.79976 10.6733V7.83511C3.79976 7.34772 3.97139 6.853 4.21357 6.44306C4.45568 6.03324 4.80512 5.64582 5.22756 5.41104L7.90338 3.92262C8.30603 3.69288 8.7957 3.59696 9.24931 3.5957ZM9.25279 4.85151C8.95229 4.85234 8.69017 4.91906 8.52426 5.01422L8.51712 5.01831L5.83802 6.5085C5.6578 6.60862 5.45449 6.8115 5.29479 7.08182C5.13511 7.35212 5.05557 7.62763 5.05557 7.83511V10.6733C5.05557 10.8829 5.13439 11.159 5.29238 11.4278C5.45047 11.6968 5.65227 11.8981 5.83452 11.9979L5.83802 11.9999L8.51817 13.4907C8.68536 13.5841 8.94939 13.6495 9.25105 13.6495C9.55166 13.6495 9.81919 13.5846 9.9926 13.4894L9.9936 13.4888L12.6704 11.9999C12.8506 11.8998 13.0539 11.6969 13.2136 11.4266C13.3732 11.1563 13.4528 10.8807 13.4528 10.6733V7.82675C13.4528 7.61712 13.374 7.34104 13.216 7.07221C13.0579 6.80322 12.8561 6.60191 12.6739 6.50205L12.6704 6.50013L9.9936 5.01118L9.99261 5.01063C9.81928 4.91549 9.55215 4.85068 9.25279 4.85151Z" fill="white"/>
<path fill-rule="evenodd" clip-rule="evenodd" d="M17.6221 11.1337C17.9689 11.1337 18.25 11.4148 18.25 11.7616C18.25 15.3484 15.3484 18.25 11.7616 18.25C11.5354 18.25 11.3267 18.1283 11.2152 17.9315C11.1038 17.7346 11.1068 17.493 11.2232 17.299L12.1023 15.8339C12.2807 15.5366 12.6664 15.4401 12.9637 15.6185C13.2611 15.797 13.3575 16.1827 13.1791 16.48L12.952 16.8586C15.2703 16.3208 16.9942 14.2453 16.9942 11.7616C16.9942 11.4148 17.2753 11.1337 17.6221 11.1337Z" fill="white"/>
<path fill-rule="evenodd" clip-rule="evenodd" d="M5.54803 1.64139C3.22971 2.17923 1.50581 4.25472 1.50581 6.73837C1.50581 7.08516 1.22469 7.36628 0.877907 7.36628C0.531124 7.36628 0.25 7.08516 0.25 6.73837C0.25 3.15159 3.15159 0.25 6.73837 0.25C6.96459 0.25 7.17332 0.371683 7.28478 0.568537C7.39623 0.76539 7.39319 1.00698 7.2768 1.20096L6.39774 2.66608C6.21932 2.96344 5.83363 3.05987 5.53626 2.88145C5.23889 2.70303 5.14247 2.31734 5.32088 2.01997L5.54803 1.64139Z" fill="white"/>
</svg>
