<svg width="16" height="16" viewBox="0 0 16 16" fill="none" xmlns="http://www.w3.org/2000/svg">
<path fill-rule="evenodd" clip-rule="evenodd" d="M13.5915 1.40402L15.3326 4.85268C15.433 5.08705 15.5 5.32143 15.5 5.58929V13.3571C15.5 14.529 14.529 15.5 13.3571 15.5H2.64286C1.47098 15.5 0.5 14.529 0.5 13.3571V5.58929C0.5 5.32143 0.566964 5.08705 0.667411 4.85268L2.40848 1.40402C2.67634 0.834821 3.24554 0.5 3.84821 0.5H12.1518C12.7545 0.5 13.3237 0.834821 13.5915 1.40402ZM12.1518 1.57143H8.53571V4.78571H14.0938L12.654 1.87277C12.5536 1.67188 12.3527 1.57143 12.1518 1.57143ZM3.34598 1.87277C3.44643 1.67188 3.64732 1.57143 3.84821 1.57143H7.46429V4.78571H1.90625L3.34598 1.87277ZM13.3571 14.4286C13.9598 14.4286 14.4286 13.9598 14.4286 13.3571V5.85714H1.57143V13.3571C1.57143 13.9598 2.04018 14.4286 2.64286 14.4286H13.3571Z" fill="white"/>
</svg>
