<svg width="22" height="22" viewBox="0 0 22 22" fill="none" xmlns="http://www.w3.org/2000/svg">
<path fill-rule="evenodd" clip-rule="evenodd" d="M0.854899 2.68484C1.66205 1.23671 3.21734 0.25 5 0.25H14C14.4142 0.25 14.75 0.585786 14.75 1V11C14.75 12.5142 13.5142 13.75 12 13.75H11C10.5858 13.75 10.25 13.4142 10.25 13C10.25 12.5858 10.5858 12.25 11 12.25H12C12.6858 12.25 13.25 11.6858 13.25 11V1.75H5C3.78266 1.75 2.71797 2.42326 2.16512 3.41513C1.96346 3.77694 1.50667 3.90676 1.14487 3.7051C0.783058 3.50344 0.653236 3.04665 0.854899 2.68484Z" fill="white"/>
<path fill-rule="evenodd" clip-rule="evenodd" d="M13.25 4C13.25 3.58579 13.5858 3.25 14 3.25H15.84C16.8339 3.25 17.7377 3.788 18.2286 4.63341L18.2311 4.63767L19.941 7.62767C20.0738 7.85979 20.0729 8.14503 19.9387 8.37633C19.8046 8.60763 19.5574 8.75 19.29 8.75H18C17.8642 8.75 17.75 8.86421 17.75 9V12C17.75 12.1358 17.8642 12.25 18 12.25H21C21.4142 12.25 21.75 12.5858 21.75 13V16C21.75 18.0742 20.0742 19.75 18 19.75H17C16.5858 19.75 16.25 19.4142 16.25 19C16.25 18.3142 15.6858 17.75 15 17.75C14.3142 17.75 13.75 18.3142 13.75 19C13.75 19.4142 13.4142 19.75 13 19.75H9C8.58579 19.75 8.25 19.4142 8.25 19C8.25 18.3142 7.68579 17.75 7 17.75C6.31421 17.75 5.75 18.3142 5.75 19C5.75 19.4142 5.41421 19.75 5 19.75H4C1.92579 19.75 0.25 18.0742 0.25 16C0.25 15.5858 0.585786 15.25 1 15.25C1.41421 15.25 1.75 15.5858 1.75 16C1.75 17.2458 2.75421 18.25 4 18.25H4.35431C4.68227 17.0981 5.74559 16.25 7 16.25C8.25441 16.25 9.31773 17.0981 9.64569 18.25H12.3543C12.6823 17.0981 13.7456 16.25 15 16.25C16.2544 16.25 17.3177 17.0981 17.6457 18.25H18C19.2458 18.25 20.25 17.2458 20.25 16V13.75H18C17.0358 13.75 16.25 12.9642 16.25 12V9C16.25 8.03676 17.0342 7.25159 17.9971 7.25L16.9314 5.38661L16.9303 5.38475C16.701 4.99126 16.2855 4.75 15.84 4.75H14.75V11C14.75 12.5142 13.5142 13.75 12 13.75H11C10.5858 13.75 10.25 13.4142 10.25 13C10.25 12.5858 10.5858 12.25 11 12.25H12C12.6858 12.25 13.25 11.6858 13.25 11V4Z" fill="white"/>
<path fill-rule="evenodd" clip-rule="evenodd" d="M7 17.75C6.30964 17.75 5.75 18.3096 5.75 19C5.75 19.6904 6.30964 20.25 7 20.25C7.69036 20.25 8.25 19.6904 8.25 19C8.25 18.3096 7.69036 17.75 7 17.75ZM4.25 19C4.25 17.4812 5.48122 16.25 7 16.25C8.51878 16.25 9.75 17.4812 9.75 19C9.75 20.5188 8.51878 21.75 7 21.75C5.48122 21.75 4.25 20.5188 4.25 19Z" fill="white"/>
<path fill-rule="evenodd" clip-rule="evenodd" d="M15 17.75C14.3096 17.75 13.75 18.3096 13.75 19C13.75 19.6904 14.3096 20.25 15 20.25C15.6904 20.25 16.25 19.6904 16.25 19C16.25 18.3096 15.6904 17.75 15 17.75ZM12.25 19C12.25 17.4812 13.4812 16.25 15 16.25C16.5188 16.25 17.75 17.4812 17.75 19C17.75 20.5188 16.5188 21.75 15 21.75C13.4812 21.75 12.25 20.5188 12.25 19Z" fill="white"/>
<path fill-rule="evenodd" clip-rule="evenodd" d="M18 8.75C17.8642 8.75 17.75 8.86421 17.75 9V12C17.75 12.1358 17.8642 12.25 18 12.25H20.25V11.1987L18.8542 8.75H18ZM16.25 9C16.25 8.03579 17.0358 7.25 18 7.25H19.29C19.5594 7.25 19.8081 7.39452 19.9416 7.62859L21.6516 10.6286C21.7161 10.7418 21.75 10.8698 21.75 11V13C21.75 13.4142 21.4142 13.75 21 13.75H18C17.0358 13.75 16.25 12.9642 16.25 12V9Z" fill="white"/>
<path fill-rule="evenodd" clip-rule="evenodd" d="M0.25 7C0.25 6.58579 0.585786 6.25 1 6.25H7C7.41421 6.25 7.75 6.58579 7.75 7C7.75 7.41421 7.41421 7.75 7 7.75H1C0.585786 7.75 0.25 7.41421 0.25 7Z" fill="white"/>
<path fill-rule="evenodd" clip-rule="evenodd" d="M0.25 10C0.25 9.58579 0.585786 9.25 1 9.25H5C5.41421 9.25 5.75 9.58579 5.75 10C5.75 10.4142 5.41421 10.75 5 10.75H1C0.585786 10.75 0.25 10.4142 0.25 10Z" fill="white"/>
<path fill-rule="evenodd" clip-rule="evenodd" d="M0.25 13C0.25 12.5858 0.585786 12.25 1 12.25H3C3.41421 12.25 3.75 12.5858 3.75 13C3.75 13.4142 3.41421 13.75 3 13.75H1C0.585786 13.75 0.25 13.4142 0.25 13Z" fill="white"/>
</svg>
