<svg width="17" height="16" viewBox="0 0 17 16" fill="none" xmlns="http://www.w3.org/2000/svg">
<path fill-rule="evenodd" clip-rule="evenodd" d="M15.4576 12.4438C15.4264 11.0622 14.2826 9.96863 12.9013 9.99988C12.3166 10.0123 11.7781 10.2295 11.349 10.5825C10.7871 11.0513 10.4386 11.7622 10.4573 12.5481L10.4575 12.5534C10.4637 13.018 10.6063 13.4596 10.8428 13.8268L10.848 13.8348C11.2894 14.5497 12.092 15.0181 13.0049 15.0002C13.6391 14.9808 14.2056 14.7366 14.635 14.3384L14.6405 14.3333C14.8274 14.1651 14.9942 13.9604 15.1154 13.7422L15.1217 13.7308C15.3465 13.35 15.47 12.9097 15.4577 12.4458L15.4576 12.4438ZM16.4573 12.4203C16.4131 10.4874 14.8123 8.95657 12.879 9.00013C12.0543 9.01775 11.3027 9.32515 10.7121 9.81153L10.7099 9.81339C9.923 10.4691 9.43212 11.4668 9.45756 12.5693C9.46684 13.227 9.66802 13.8479 9.99954 14.3642C10.6233 15.3715 11.7533 16.0261 13.0277 15.9999L13.0323 15.9998C13.9108 15.9737 14.7074 15.6339 15.3123 15.0741C15.5726 14.8393 15.8086 14.5519 15.9864 14.2335C16.2994 13.7009 16.4747 13.0787 16.4573 12.4203Z" fill="white"/>
<path fill-rule="evenodd" clip-rule="evenodd" d="M14.472 11.38C14.6639 11.5786 14.6585 11.8951 14.46 12.087L12.8925 13.602C12.6999 13.7882 12.3947 13.7895 12.2005 13.6049L11.443 12.8849C11.2429 12.6947 11.2348 12.3782 11.4251 12.1781C11.6153 11.9779 11.9318 11.9699 12.132 12.1601L12.5421 12.5499L13.765 11.368C13.9636 11.176 14.2801 11.1814 14.472 11.38Z" fill="white"/>
<path fill-rule="evenodd" clip-rule="evenodd" d="M0.652241 4.32956C0.790556 4.09056 1.09643 4.00893 1.33544 4.14724L7.70737 7.83473L14.0344 4.16982C14.2733 4.03141 14.5792 4.11291 14.7176 4.35186C14.856 4.59081 14.7745 4.89672 14.5356 5.03513L7.95811 8.84515C7.80315 8.9349 7.61204 8.93494 7.45705 8.84525L0.834558 5.01276C0.595553 4.87445 0.513927 4.56857 0.652241 4.32956Z" fill="white"/>
<path fill-rule="evenodd" clip-rule="evenodd" d="M7.70749 7.90498C7.98363 7.90498 8.20749 8.12884 8.20749 8.40498V15.2075C8.20749 15.4836 7.98363 15.7075 7.70749 15.7075C7.43135 15.7075 7.20749 15.4836 7.20749 15.2075V8.40498C7.20749 8.12884 7.43135 7.90498 7.70749 7.90498Z" fill="white"/>
<path fill-rule="evenodd" clip-rule="evenodd" d="M7.70749 1C7.20685 1 6.73413 1.10827 6.39975 1.29599L6.39739 1.29732L2.39239 3.51733C2.03533 3.71503 1.6813 4.08206 1.41538 4.53303C1.14944 4.98405 1 5.4707 1 5.8775V10.1225C1 10.5293 1.14944 11.016 1.41538 11.467C1.6813 11.918 2.03514 12.2849 2.39219 12.4826L6.39975 14.704C6.73413 14.8918 7.20685 15 7.70749 15C8.20813 15 8.68085 14.8918 9.01523 14.704L9.01838 14.7023L9.90934 14.2105C9.61972 13.7039 9.45749 13.1165 9.45749 12.5C9.45749 11.3987 9.96515 10.4083 10.7717 9.76834C11.373 9.28934 12.1339 9.00001 12.9575 9.00001C13.4797 9.00001 13.9722 9.11277 14.415 9.31756V5.8775C14.415 5.4707 14.2655 4.98405 13.9996 4.53303C13.7337 4.08206 13.3798 3.71514 13.0228 3.51744L9.01522 1.296C8.68085 1.10828 8.20813 1 7.70749 1ZM9.50348 0.423291C8.98307 0.131514 8.33134 0 7.70749 0C7.08364 0 6.4319 0.131514 5.91149 0.423291L1.90778 2.6426C1.90784 2.64256 1.90771 2.64263 1.90778 2.6426C1.35742 2.9474 0.886141 3.46179 0.553979 4.02511C0.221804 4.58846 0 5.2493 0 5.8775V10.1225C0 10.7507 0.221804 11.4116 0.553979 11.9749C0.886141 12.5382 1.35722 13.0525 1.90758 13.3573C1.90751 13.3573 1.90765 13.3574 1.90758 13.3573L5.91022 15.576C5.91062 15.5762 5.91102 15.5765 5.91142 15.5767C6.43184 15.8685 7.08361 16 7.70749 16C8.33123 16 8.98283 15.8686 9.5032 15.5769C9.50372 15.5766 9.50424 15.5763 9.50476 15.576L10.8741 14.8203C11.0058 14.7476 11.0977 14.6195 11.1245 14.4715C11.1513 14.3235 11.11 14.1713 11.0121 14.0571C10.9382 13.9709 10.8762 13.8851 10.8283 13.7999C10.825 13.794 10.8216 13.7883 10.8181 13.7826C10.5887 13.4106 10.4575 12.9688 10.4575 12.5C10.4575 11.7114 10.8198 11.0067 11.3933 10.5517L11.3941 10.551C11.8277 10.2054 12.3715 10 12.9575 10C13.5834 10 14.1425 10.2241 14.579 10.6044C14.7134 10.7216 14.9 10.7583 15.0687 10.7008C15.2374 10.6433 15.3628 10.5003 15.3978 10.3256C15.4152 10.2386 15.4151 10.1659 15.415 10.1287C15.415 10.1265 15.415 10.1244 15.415 10.1225V5.8775C15.415 5.2493 15.1932 4.58846 14.861 4.02511C14.5288 3.46179 14.0578 2.94751 13.5074 2.64271L9.50476 0.424008C9.50434 0.423769 9.50391 0.42353 9.50348 0.423291Z" fill="white"/>
</svg>
